<?xml version="1.0" encoding="utf-8"?>
<!-- Generated by IcoMoon.io -->
<!DOCTYPE svg PUBLIC "-//W3C//DTD SVG 1.1//EN" "http://www.w3.org/Graphics/SVG/1.1/DTD/svg11.dtd">
<svg version="1.1" xmlns="http://www.w3.org/2000/svg" xmlns:xlink="http://www.w3.org/1999/xlink" width="120" height="120" viewBox="0 0 120 120">
<g id="icomoon-ignore">
	<line stroke-width="1" x1="" y1="" x2="" y2="" stroke="#449FDB" opacity=""></line>
</g>
	<path d="M38.5 83.36c-0.348 0-0.692-0.088-1.004-0.272l-35-20.312c-0.604-0.352-0.98-0.992-0.996-1.688s0.336-1.352 0.92-1.728l35-22.4c0.616-0.396 1.4-0.42 2.040-0.072s1.040 1.024 1.040 1.752v42.716c0 0.716-0.384 1.376-1 1.732-0.312 0.18-0.656 0.272-1 0.272zM7.34 60.96l29.16 16.92v-35.584l-29.16 18.664z" fill="#FFFFFF"></path>
	<path d="M116.5 62.792h-76c-1.104 0-2-0.896-2-2s0.896-2 2-2h76c1.1 0 2 0.896 2 2s-0.9 2-2 2z" fill="#FFFFFF"></path>
</svg>
