<?xml version="1.0" encoding="utf-8"?>
<!-- Generator: Adobe Illustrator 16.0.0, SVG Export Plug-In . SVG Version: 6.00 Build 0)  -->
<!DOCTYPE svg PUBLIC "-//W3C//DTD SVG 1.1//EN" "http://www.w3.org/Graphics/SVG/1.1/DTD/svg11.dtd">
<svg version="1.1" id="Layer_1" xmlns="http://www.w3.org/2000/svg" xmlns:xlink="http://www.w3.org/1999/xlink" x="0px" y="0px"
	 width="60px" height="60px" viewBox="0 0 60 60" enable-background="new 0 0 60 60" xml:space="preserve">
<g id="icomoon-ignore">
	<line fill="#FFFFFF" stroke="#449FDB" x1="0" y1="0" x2="0" y2="0"/>
</g>
<path fill="#FFFFFF" d="M51.5,0h-43C3.812,0,0,3.812,0,8.5v43C0,56.188,3.812,60,8.5,60h43c4.688,0,8.5-3.813,8.5-8.5v-43
	C60,3.812,56.188,0,51.5,0z M52,16c0,1.106-0.895,2-2,2s-2-0.894-2-2v-1.172L32.828,30L48,45.172V44c0-1.105,0.895-2,2-2
	s2,0.895,2,2v6c0,0.26-0.05,0.52-0.154,0.764c-0.205,0.49-0.592,0.877-1.082,1.082C50.52,51.948,50.26,52,50,52h-6
	c-1.105,0-2-0.895-2-2s0.895-2,2-2h1.172L30,32.828L14.828,48H16c1.106,0,2,0.895,2,2s-0.894,2-2,2h-6
	c-0.26,0-0.52-0.05-0.764-0.154c-0.49-0.201-0.878-0.592-1.082-1.082C8.052,50.52,8,50.26,8,50v-6c0-1.105,0.894-2,2-2s2,0.895,2,2
	v1.172L27.172,30L12,14.828V16c0,1.106-0.894,2-2,2s-2-0.894-2-2v-6c0-0.26,0.052-0.52,0.154-0.764
	c0.204-0.492,0.592-0.88,1.082-1.082C9.48,8.052,9.74,8,10,8h6c1.106,0,2,0.894,2,2s-0.894,2-2,2h-1.172L30,27.172L45.172,12H44
	c-1.105,0-2-0.894-2-2s0.895-2,2-2h6c0.26,0,0.52,0.052,0.764,0.154c0.49,0.202,0.877,0.59,1.082,1.082C51.948,9.48,52,9.74,52,10
	V16z"/>
</svg>
