<?xml version="1.0" encoding="utf-8"?>
<!-- Generated by IcoMoon.io -->
<!DOCTYPE svg PUBLIC "-//W3C//DTD SVG 1.1//EN" "http://www.w3.org/Graphics/SVG/1.1/DTD/svg11.dtd">
<svg version="1.1" xmlns="http://www.w3.org/2000/svg" xmlns:xlink="http://www.w3.org/1999/xlink" width="60" height="60" viewBox="0 0 60 60">
<g id="icomoon-ignore">
	<line stroke-width="1" x1="" y1="" x2="" y2="" stroke="#449FDB" opacity=""></line>
</g>
	<path d="M30 0c-16.568 0-30 13.434-30 30s13.432 30 30 30 30-13.434 30-30-13.432-30-30-30zM42.134 40.368c0.486 0.488 0.486 1.276 0 1.766-0.244 0.246-0.564 0.368-0.884 0.368s-0.64-0.122-0.882-0.368l-10.368-10.368-10.366 10.368c-0.244 0.246-0.564 0.368-0.884 0.368s-0.64-0.122-0.882-0.368c-0.488-0.492-0.488-1.28 0-1.766l10.366-10.37-10.366-10.368c-0.488-0.49-0.488-1.278 0-1.766s1.28-0.488 1.768 0l10.364 10.368 10.366-10.368c0.488-0.488 1.28-0.488 1.768 0s0.488 1.276 0 1.766l-10.366 10.368 10.366 10.37z" fill="#FFFFFF"></path>
</svg>
