<?xml version="1.0" encoding="utf-8"?>
<!-- Generator: Adobe Illustrator 16.0.0, SVG Export Plug-In . SVG Version: 6.00 Build 0)  -->
<!DOCTYPE svg PUBLIC "-//W3C//DTD SVG 1.1//EN" "http://www.w3.org/Graphics/SVG/1.1/DTD/svg11.dtd">
<svg version="1.1" id="Layer_1" xmlns="http://www.w3.org/2000/svg" xmlns:xlink="http://www.w3.org/1999/xlink" x="0px" y="0px"
	 width="60px" height="60px" viewBox="0 0 60 60" enable-background="new 0 0 60 60" xml:space="preserve">
<g id="icomoon-ignore">
	<line fill="#FFFFFF" stroke="#449FDB" x1="0" y1="0" x2="0" y2="0"/>
</g>
<path fill="#FFFFFF" d="M30,0C18.282,0,8.75,9.468,8.75,21.11c0,11.455,19.424,37.298,20.252,38.392
	C29.238,59.813,29.606,60,29.998,60H30c0.39,0,0.758-0.184,0.994-0.492c0.826-1.09,20.256-26.79,20.256-38.398
	C51.25,9.468,41.714,0,30,0z M37.25,27.77c0.45,0.522,0.389,1.312-0.137,1.76c-0.233,0.202-0.521,0.298-0.812,0.298
	c-0.352,0-0.7-0.148-0.95-0.438l-5.3-6.204l-5.3,6.204c-0.242,0.29-0.594,0.438-0.95,0.438c-0.286,0-0.574-0.098-0.81-0.298
	c-0.526-0.448-0.588-1.238-0.138-1.76l5.556-6.504l-5.556-6.5c-0.45-0.528-0.386-1.312,0.138-1.762
	c0.524-0.45,1.314-0.388,1.76,0.136l5.298,6.204l5.3-6.204c0.45-0.526,1.24-0.586,1.762-0.136c0.527,0.45,0.587,1.234,0.137,1.762
	l-5.553,6.5L37.25,27.77z"/>
</svg>
