<?xml version="1.0" encoding="utf-8"?>
<!-- Generated by IcoMoon.io -->
<!DOCTYPE svg PUBLIC "-//W3C//DTD SVG 1.1//EN" "http://www.w3.org/Graphics/SVG/1.1/DTD/svg11.dtd">
<svg version="1.1" xmlns="http://www.w3.org/2000/svg" xmlns:xlink="http://www.w3.org/1999/xlink" width="120" height="120" viewBox="0 0 120 120">
<g id="icomoon-ignore">
	<line stroke-width="1" x1="" y1="" x2="" y2="" stroke="#449FDB" opacity=""></line>
</g>
	<path d="M116.728 48.904c-1.256-0.584-2.748-0.048-3.328 1.2l-4.724 10.068c-4.2-30.408-30.292-53.92-61.844-53.92-1.38 0-2.5 1.116-2.5 2.5 0 1.38 1.12 2.5 2.5 2.5 29.568 0 53.956 22.42 57.132 51.148l-8.148-10.208c-0.86-1.080-2.424-1.256-3.516-0.392-1.076 0.86-1.252 2.428-0.396 3.508l12.964 16.252c0.472 0.6 1.2 0.944 1.952 0.944 0.096 0 0.196-0.008 0.292-0.024 0.856-0.092 1.608-0.632 1.968-1.416l8.836-18.832c0.6-1.252 0.060-2.744-1.188-3.328z" fill="#FFFFFF"></path>
	<path d="M46.836 23.748c-24.812 0-45 20.184-45 45 0 24.812 20.188 45 45 45 24.816 0 45-20.188 45-45 0-24.816-20.184-45-45-45zM68.604 50.512l-20 20c-0.488 0.484-1.128 0.736-1.768 0.736-0.636 0-1.276-0.252-1.764-0.736l-15-15c-0.976-0.976-0.976-2.56 0-3.536s2.56-0.976 3.536 0l13.232 13.232 18.24-18.232c0.976-0.976 2.56-0.976 3.536 0s0.968 2.56-0.012 3.536z" fill="#FFFFFF"></path>
</svg>
