<?xml version="1.0" encoding="utf-8"?>
<!-- Generated by IcoMoon.io -->
<!DOCTYPE svg PUBLIC "-//W3C//DTD SVG 1.1//EN" "http://www.w3.org/Graphics/SVG/1.1/DTD/svg11.dtd">
<svg version="1.1" xmlns="http://www.w3.org/2000/svg" xmlns:xlink="http://www.w3.org/1999/xlink" width="60" height="60" viewBox="0 0 60 60">
<g id="icomoon-ignore">
	<line stroke-width="1" x1="" y1="" x2="" y2="" stroke="#449FDB" opacity=""></line>
</g>
	<path d="M30 0c-16.568 0-30 13.434-30 30s13.432 30 30 30 30-13.434 30-30-13.432-30-30-30zM43.594 18.19l-15 22.606c-0.208 0.312-0.542 0.514-0.916 0.55-0.042 0.004-0.084 0.008-0.126 0.008-0.33 0-0.648-0.132-0.884-0.37l-10.108-10.104c-0.488-0.49-0.488-1.278 0-1.766s1.28-0.488 1.768 0l9.028 9.024 14.154-21.332c0.382-0.574 1.158-0.734 1.734-0.348 0.576 0.382 0.734 1.158 0.35 1.732z" fill="#FFFFFF"></path>
</svg>
